<svg width="55" height="107" viewBox="0 0 55 107" fill="none" xmlns="http://www.w3.org/2000/svg">
<g opacity="0.6">
<mask id="mask0_511_441" style="mask-type:alpha" maskUnits="userSpaceOnUse" x="2" y="56" width="51" height="51">
<g opacity="0.25">
<path fill-rule="evenodd" clip-rule="evenodd" d="M43.4274 106.25C48.4381 106.25 52.5 102.188 52.5 97.1774V65.3226C52.5 60.3119 48.4381 56.25 43.4274 56.25H11.5726C6.56193 56.25 2.5 60.3119 2.5 65.3226V97.1774C2.5 102.188 6.56193 106.25 11.5726 106.25H43.4274ZM19.5363 90.9274C18.4785 90.9274 17.621 90.0699 17.621 89.0121V76.1089C17.621 75.0511 18.4785 74.1935 19.5363 74.1935C20.5941 74.1935 21.4516 75.0511 21.4516 76.1089V84.4547L31.3472 74.5121C32.0934 73.7624 33.3062 73.7594 34.056 74.5056C34.8057 75.2518 34.8085 76.4647 34.0623 77.2144L21.2216 90.116C21.1057 90.2325 20.9786 90.331 20.8436 90.4114C20.5013 90.7313 20.0418 90.9274 19.5363 90.9274ZM11.0685 90.9274C10.0108 90.9274 9.15325 90.0699 9.15323 89.0121V76.1089C9.15327 75.0511 10.0108 74.1935 11.0685 74.1935C12.1263 74.1935 12.9838 75.0511 12.9839 76.1089V89.0121C12.9838 90.0699 12.1263 90.9274 11.0685 90.9274ZM32.9774 90.3763C32.2312 91.126 31.0186 91.129 30.2688 90.3828C29.5191 89.6367 29.5162 88.424 30.2623 87.6742L43.1029 74.7724C43.8492 74.0226 45.062 74.0199 45.8117 74.7661C46.5614 75.5123 46.5644 76.7249 45.8182 77.4747L32.9774 90.3763Z" fill="url(#paint0_linear_511_441)"/>
<path fill-rule="evenodd" clip-rule="evenodd" d="M43.4274 106.25C48.4381 106.25 52.5 102.188 52.5 97.1774V65.3226C52.5 60.3119 48.4381 56.25 43.4274 56.25H11.5726C6.56193 56.25 2.5 60.3119 2.5 65.3226V97.1774C2.5 102.188 6.56193 106.25 11.5726 106.25H43.4274ZM19.5363 90.9274C18.4785 90.9274 17.621 90.0699 17.621 89.0121V76.1089C17.621 75.0511 18.4785 74.1935 19.5363 74.1935C20.5941 74.1935 21.4516 75.0511 21.4516 76.1089V84.4547L31.3472 74.5121C32.0934 73.7624 33.3062 73.7594 34.056 74.5056C34.8057 75.2518 34.8085 76.4647 34.0623 77.2144L21.2216 90.116C21.1057 90.2325 20.9786 90.331 20.8436 90.4114C20.5013 90.7313 20.0418 90.9274 19.5363 90.9274ZM11.0685 90.9274C10.0108 90.9274 9.15325 90.0699 9.15323 89.0121V76.1089C9.15327 75.0511 10.0108 74.1935 11.0685 74.1935C12.1263 74.1935 12.9838 75.0511 12.9839 76.1089V89.0121C12.9838 90.0699 12.1263 90.9274 11.0685 90.9274ZM32.9774 90.3763C32.2312 91.126 31.0186 91.129 30.2688 90.3828C29.5191 89.6367 29.5162 88.424 30.2623 87.6742L43.1029 74.7724C43.8492 74.0226 45.062 74.0199 45.8117 74.7661C46.5614 75.5123 46.5644 76.7249 45.8182 77.4747L32.9774 90.3763Z" fill="url(#paint1_radial_511_441)"/>
<path fill-rule="evenodd" clip-rule="evenodd" d="M43.4274 106.25C48.4381 106.25 52.5 102.188 52.5 97.1774V65.3226C52.5 60.3119 48.4381 56.25 43.4274 56.25H11.5726C6.56193 56.25 2.5 60.3119 2.5 65.3226V97.1774C2.5 102.188 6.56193 106.25 11.5726 106.25H43.4274ZM19.5363 90.9274C18.4785 90.9274 17.621 90.0699 17.621 89.0121V76.1089C17.621 75.0511 18.4785 74.1935 19.5363 74.1935C20.5941 74.1935 21.4516 75.0511 21.4516 76.1089V84.4547L31.3472 74.5121C32.0934 73.7624 33.3062 73.7594 34.056 74.5056C34.8057 75.2518 34.8085 76.4647 34.0623 77.2144L21.2216 90.116C21.1057 90.2325 20.9786 90.331 20.8436 90.4114C20.5013 90.7313 20.0418 90.9274 19.5363 90.9274ZM11.0685 90.9274C10.0108 90.9274 9.15325 90.0699 9.15323 89.0121V76.1089C9.15327 75.0511 10.0108 74.1935 11.0685 74.1935C12.1263 74.1935 12.9838 75.0511 12.9839 76.1089V89.0121C12.9838 90.0699 12.1263 90.9274 11.0685 90.9274ZM32.9774 90.3763C32.2312 91.126 31.0186 91.129 30.2688 90.3828C29.5191 89.6367 29.5162 88.424 30.2623 87.6742L43.1029 74.7724C43.8492 74.0226 45.062 74.0199 45.8117 74.7661C46.5614 75.5123 46.5644 76.7249 45.8182 77.4747L32.9774 90.3763Z" fill="url(#paint2_radial_511_441)"/>
<path fill-rule="evenodd" clip-rule="evenodd" d="M43.4274 106.25C48.4381 106.25 52.5 102.188 52.5 97.1774V65.3226C52.5 60.3119 48.4381 56.25 43.4274 56.25H11.5726C6.56193 56.25 2.5 60.3119 2.5 65.3226V97.1774C2.5 102.188 6.56193 106.25 11.5726 106.25H43.4274ZM19.5363 90.9274C18.4785 90.9274 17.621 90.0699 17.621 89.0121V76.1089C17.621 75.0511 18.4785 74.1935 19.5363 74.1935C20.5941 74.1935 21.4516 75.0511 21.4516 76.1089V84.4547L31.3472 74.5121C32.0934 73.7624 33.3062 73.7594 34.056 74.5056C34.8057 75.2518 34.8085 76.4647 34.0623 77.2144L21.2216 90.116C21.1057 90.2325 20.9786 90.331 20.8436 90.4114C20.5013 90.7313 20.0418 90.9274 19.5363 90.9274ZM11.0685 90.9274C10.0108 90.9274 9.15325 90.0699 9.15323 89.0121V76.1089C9.15327 75.0511 10.0108 74.1935 11.0685 74.1935C12.1263 74.1935 12.9838 75.0511 12.9839 76.1089V89.0121C12.9838 90.0699 12.1263 90.9274 11.0685 90.9274ZM32.9774 90.3763C32.2312 91.126 31.0186 91.129 30.2688 90.3828C29.5191 89.6367 29.5162 88.424 30.2623 87.6742L43.1029 74.7724C43.8492 74.0226 45.062 74.0199 45.8117 74.7661C46.5614 75.5123 46.5644 76.7249 45.8182 77.4747L32.9774 90.3763Z" fill="url(#paint3_radial_511_441)" fill-opacity="0.5"/>
</g>
</mask>
<g mask="url(#mask0_511_441)">
<rect x="-23.75" y="53.75" width="98.75" height="37.5" fill="url(#paint4_linear_511_441)"/>
</g>
</g>
<path fill-rule="evenodd" clip-rule="evenodd" d="M43.4274 0C48.4381 1.55869e-07 52.5 4.06193 52.5 9.07258V40.9274C52.5 45.9381 48.4381 50 43.4274 50H11.5726C6.56193 50 2.5 45.9381 2.5 40.9274V9.07258C2.5 4.06193 6.56193 1.55869e-07 11.5726 0H43.4274ZM19.5363 15.3226C18.4785 15.3226 17.621 16.1801 17.621 17.2379V30.1411C17.621 31.1989 18.4785 32.0565 19.5363 32.0565C20.5941 32.0565 21.4516 31.1989 21.4516 30.1411V21.7953L31.3472 31.7379C32.0934 32.4876 33.3062 32.4906 34.056 31.7444C34.8057 30.9982 34.8085 29.7853 34.0623 29.0356L21.2216 16.134C21.1057 16.0175 20.9786 15.919 20.8436 15.8386C20.5013 15.5187 20.0418 15.3226 19.5363 15.3226ZM11.0685 15.3226C10.0108 15.3226 9.15325 16.1801 9.15323 17.2379V30.1411C9.15327 31.1989 10.0108 32.0565 11.0685 32.0565C12.1263 32.0565 12.9838 31.1989 12.9839 30.1411V17.2379C12.9838 16.1801 12.1263 15.3226 11.0685 15.3226ZM32.9774 15.8737C32.2312 15.124 31.0186 15.121 30.2688 15.8672C29.5191 16.6133 29.5162 17.826 30.2623 18.5758L43.1029 31.4776C43.8492 32.2274 45.062 32.2301 45.8117 31.4839C46.5614 30.7377 46.5644 29.5251 45.8182 28.7753L32.9774 15.8737Z" fill="url(#paint5_linear_511_441)"/>
<defs>
<linearGradient id="paint0_linear_511_441" x1="5.44186" y1="104.159" x2="54.9964" y2="63.0085" gradientUnits="userSpaceOnUse">
<stop offset="0.00222774" stop-color="#FFF017"/>
<stop offset="1" stop-color="#FF9517"/>
</linearGradient>
<radialGradient id="paint1_radial_511_441" cx="0" cy="0" r="1" gradientTransform="matrix(-19.822 19.9596 19.9596 26.0249 56.7772 51.3285)" gradientUnits="userSpaceOnUse">
<stop stop-color="#FF6200"/>
<stop offset="1" stop-color="#FF6200" stop-opacity="0"/>
</radialGradient>
<radialGradient id="paint2_radial_511_441" cx="0" cy="0" r="1" gradientTransform="matrix(24.5603 -36.614 -36.614 -32.246 -0.285975 114.878)" gradientUnits="userSpaceOnUse">
<stop stop-color="#8AFFB9"/>
<stop offset="1" stop-color="#8AFFB9" stop-opacity="0"/>
</radialGradient>
<radialGradient id="paint3_radial_511_441" cx="0" cy="0" r="1" gradientUnits="userSpaceOnUse" gradientTransform="translate(27.5 81.25) rotate(90) scale(36.3811 36.3811)">
<stop stop-color="#FFFA77"/>
<stop offset="1" stop-color="#FFFA77" stop-opacity="0"/>
</radialGradient>
<linearGradient id="paint4_linear_511_441" x1="25.625" y1="91.25" x2="25.625" y2="53.75" gradientUnits="userSpaceOnUse">
<stop offset="0.134615" stop-color="#1C1C1C"/>
<stop offset="0.783333" stop-color="#5F5F5F" stop-opacity="0.35"/>
</linearGradient>
<linearGradient id="paint5_linear_511_441" x1="3.4322" y1="4.5" x2="52.3756" y2="5.70182" gradientUnits="userSpaceOnUse">
<stop stop-color="#B0BAC2"/>
<stop offset="1" stop-color="#333C46"/>
</linearGradient>
</defs>
</svg>
